<svg id="visual" viewBox="0 0 900 600" width="900" height="600" xmlns="http://www.w3.org/2000/svg" xmlns:xlink="http://www.w3.org/1999/xlink" version="1.1"><rect x="0" y="0" width="900" height="600" fill="#002233"></rect><path d="M0 419L21.5 417C43 415 86 411 128.8 416.2C171.7 421.3 214.3 435.7 257.2 432.8C300 430 343 410 385.8 417.8C428.7 425.7 471.3 461.3 514.2 473.3C557 485.3 600 473.7 642.8 474.5C685.7 475.3 728.3 488.7 771.2 492C814 495.3 857 488.7 878.5 485.3L900 482L900 601L878.5 601C857 601 814 601 771.2 601C728.3 601 685.7 601 642.8 601C600 601 557 601 514.2 601C471.3 601 428.7 601 385.8 601C343 601 300 601 257.2 601C214.3 601 171.7 601 128.8 601C86 601 43 601 21.5 601L0 601Z" fill="#574bf7" stroke-linecap="round" stroke-linejoin="miter"></path></svg>